<svg width="200" height="200" viewBox="0 0 200 200" fill="none" xmlns="http://www.w3.org/2000/svg">
  <!-- Shield -->
  <path d="M100 20C100 20 40 40 40 80C40 120 60 160 100 180C140 160 160 120 160 80C160 40 100 20 100 20Z" 
        fill="currentColor" opacity="0.1"/>
  <path d="M100 20C100 20 40 40 40 80C40 120 60 160 100 180C140 160 160 120 160 80C160 40 100 20 100 20Z" 
        stroke="currentColor" stroke-width="4" stroke-linejoin="round"/>
  
  <!-- Heart -->
  <path d="M100 130C100 130 75 110 75 90C75 75 85 70 92.5 70C97.5 70 100 75 100 75C100 75 102.5 70 107.5 70C115 70 125 75 125 90C125 110 100 130 100 130Z" 
        fill="currentColor"/>
</svg>
